# xmcd
#
# Track frame offsets: 
#        150
#        14883
#        29761
#        51153
#        62036
#        79118
#        104532
#        122774
#        140172
#        159622
#        180746
#        199549
#
# Disc length: 2873 seconds
#
# Revision: 0
# Processed by: cddbd v1.5.2PL0 Copyright (c) Steve Scherf et al.
# Submitted via: ExactAudioCopyFreeDBPlugin 1.0
#
DISCID=b20b370c
DTITLE=Andy T - Nick Nixon Band - Drink Drank Drunk
DYEAR=2013
DGENRE=Blues
TTITLE0=Midnight Hour
TTITLE1=Don't Touch Me
TTITLE2=Drink Drank Drunk
TTITLE3=No Use Knockin'
TTITLE4=Have You seen My Monkey
TTITLE5=Dos Danos
TTITLE6=No End To The Blues
TTITLE7=On My Way To Texas
TTITLE8=Hi-Heel Sneakers
TTITLE9=Life Is Too Short
TTITLE10=You Look So Good
TTITLE11=I've Got A Woman
EXTD=
EXTT0=
EXTT1=
EXTT2=
EXTT3=
EXTT4=
EXTT5=
EXTT6=
EXTT7=
EXTT8=
EXTT9=
EXTT10=
EXTT11=
PLAYORDER=
